<svg xmlns="http://www.w3.org/2000/svg" width="100" height="100" fill="none" viewBox="0 0 100 100">
  <rect width="100" height="100" fill="#fff" rx="50"/>
  <path fill="#2E3440" d="M24.944 41.144h7.56v2.592h.648c.336-.984.9-1.74 1.692-2.268.816-.552 1.788-.828 2.916-.828 1.776 0 3.204.564 4.284 1.692 1.08 1.104 1.62 2.796 1.62 5.076v.792l-4.68.432v-.504c0-.984-.252-1.764-.756-2.34-.504-.6-1.26-.9-2.268-.9-1.008 0-1.8.348-2.376 1.044-.576.696-.864 1.692-.864 2.988v5.76h4.104V59H24.512v-4.32h3.672v-9.216h-3.24v-4.32zM52.387 59h-4.536V41.144h4.536v2.664h.648a4.738 4.738 0 011.98-2.34c.912-.552 1.98-.828 3.204-.828.864 0 1.668.144 2.412.432.768.264 1.44.684 2.016 1.26.576.576 1.02 1.308 1.332 2.196.336.888.504 1.944.504 3.168V59h-4.536V48.848c0-1.272-.312-2.268-.936-2.988-.6-.744-1.476-1.116-2.628-1.116-1.344 0-2.352.456-3.024 1.368-.648.888-.972 2.088-.972 3.6V59zm29.135-2.916c0 .48-.096.936-.288 1.368a3.277 3.277 0 01-.72 1.08 3.49 3.49 0 01-1.116.684c-.408.192-.84.288-1.296.288-.48 0-.924-.096-1.332-.288a3.595 3.595 0 01-1.08-.684 3.806 3.806 0 01-.756-1.08 3.74 3.74 0 01-.252-1.368c0-.48.084-.924.252-1.332.192-.432.444-.792.756-1.08a3.277 3.277 0 011.08-.72 3.089 3.089 0 011.332-.288c.456 0 .888.096 1.296.288.432.168.804.408 1.116.72.312.288.552.648.72 1.08.192.408.288.852.288 1.332z"/>
</svg>
